<svg width="68" height="68" viewBox="0 0 68 68" fill="none" xmlns="http://www.w3.org/2000/svg">
<path d="M25.5 31.1666V28.3333C25.5 23.63 26.9167 19.8333 34 19.8333C41.0833 19.8333 42.5 23.63 42.5 28.3333V31.1666M34 41.3666C34.2232 41.3666 34.4443 41.3227 34.6506 41.2372C34.8568 41.1518 35.0442 41.0266 35.2021 40.8687C35.3599 40.7109 35.4852 40.5235 35.5706 40.3172C35.656 40.111 35.7 39.8899 35.7 39.6666C35.7 39.4434 35.656 39.2223 35.5706 39.0161C35.4852 38.8098 35.3599 38.6224 35.2021 38.4646C35.0442 38.3067 34.8568 38.1815 34.6506 38.0961C34.4443 38.0106 34.2232 37.9666 34 37.9666C33.5491 37.9666 33.1167 38.1458 32.7979 38.4646C32.4791 38.7834 32.3 39.2158 32.3 39.6666C32.3 40.1175 32.4791 40.5499 32.7979 40.8687C33.1167 41.1875 33.5491 41.3666 34 41.3666Z" stroke="#606060" stroke-width="1.5" stroke-linecap="round" stroke-linejoin="round"/>
<path d="M41.084 48.1667H26.9173C21.2507 48.1667 19.834 46.75 19.834 41.0834V38.25C19.834 32.5834 21.2507 31.1667 26.9173 31.1667H41.084C46.7507 31.1667 48.1673 32.5834 48.1673 38.25V41.0834C48.1673 46.75 46.7507 48.1667 41.084 48.1667Z" stroke="#606060" stroke-width="1.5" stroke-linecap="round" stroke-linejoin="round"/>
<path d="M33.9994 62.3334C49.6479 62.3334 62.3327 49.6485 62.3327 34C62.3327 18.3515 49.6479 5.66669 33.9994 5.66669C18.3509 5.66669 5.66602 18.3515 5.66602 34C5.66602 49.6485 18.3509 62.3334 33.9994 62.3334Z" stroke="#606060" stroke-width="1.5" stroke-linecap="round" stroke-linejoin="round"/>
</svg>
