<svg xmlns="http://www.w3.org/2000/svg">
    <symbol id="arrow_circle_down" width="currentWidth" height="currentHeight" viewBox="0 0 38 38" fill="currentColor">
        <path d="M37.4062 19C37.4062 29.168 29.168 37.4062 19 37.4062C8.83203 37.4062 0.59375 29.168 0.59375 19C0.59375 8.83203 8.83203 0.59375 19 0.59375C29.168 0.59375 37.4062 8.83203 37.4062 19ZM26.7484 16.8551L21.375 22.4586V8.90625C21.375 7.91914 20.5809 7.125 19.5938 7.125H18.4062C17.4191 7.125 16.625 7.91914 16.625 8.90625V22.4586L11.2516 16.8551C10.5613 16.1352 9.41094 16.1203 8.70586 16.8254L7.89687 17.6418C7.19922 18.3395 7.19922 19.4676 7.89687 20.1578L17.7383 30.0066C18.4359 30.7043 19.5641 30.7043 20.2543 30.0066L30.1031 20.1578C30.8008 19.4602 30.8008 18.332 30.1031 17.6418L29.2941 16.8254C28.5891 16.1203 27.4387 16.1352 26.7484 16.8551Z"
              fill="white"/>
    </symbol>
    <symbol id="avatar" width="currentWidth" height="currentHeight" viewBox="0 0 172 172" fill="currentColor">
        <path d="M86 2.6875C39.9766 2.6875 2.6875 39.9766 2.6875 86C2.6875 132.023 39.9766 169.312 86 169.312C132.023 169.312 169.312 132.023 169.312 86C169.312 39.9766 132.023 2.6875 86 2.6875ZM86 34.9375C102.327 34.9375 115.562 48.1734 115.562 64.5C115.562 80.8266 102.327 94.0625 86 94.0625C69.6734 94.0625 56.4375 80.8266 56.4375 64.5C56.4375 48.1734 69.6734 34.9375 86 34.9375ZM86 150.5C66.2805 150.5 48.6102 141.564 36.7852 127.589C43.1008 115.697 55.4633 107.5 69.875 107.5C70.6813 107.5 71.4875 107.634 72.2602 107.87C76.6273 109.28 81.1961 110.188 86 110.188C90.8039 110.188 95.4062 109.28 99.7398 107.87C100.512 107.634 101.319 107.5 102.125 107.5C116.537 107.5 128.899 115.697 135.215 127.589C123.39 141.564 105.72 150.5 86 150.5Z"/>
    </symbol>
    <symbol id="comment_icon" width="currentWidth" height="currentHeight" viewBox="0 0 24 24" fill="currentColor"
            stroke="currentStroke">
        <path d="M8.5 19H8C4 19 2 18 2 13V8C2 4 4 2 8 2H16C20 2 22 4 22 8V13C22 17 20 19 16 19H15.5C15.19 19 14.89 19.15 14.7 19.4L13.2 21.4C12.54 22.28 11.46 22.28 10.8 21.4L9.3 19.4C9.14 19.18 8.77 19 8.5 19Z"
              stroke-width="1.5" stroke-miterlimit="10" stroke-linecap="round" stroke-linejoin="round"/>
        <path d="M15.996 11H16.006M11.995 11H12.005M7.995 11H8.003" stroke-width="2" stroke-linecap="round"
              stroke-linejoin="round"/>
    </symbol>
    <symbol id="eye_icon" width="currentWidth" height="currentHeight" viewBox="0 0 24 24" fill="currentColor">
        <path d="M23.855 11.3917C21.5954 6.98292 17.1221 4 12 4C6.87789 4 2.40331 6.985 0.144977 11.3921C0.0496613 11.5806 0 11.7889 0 12.0002C0 12.2115 0.0496613 12.4198 0.144977 12.6083C2.40456 17.0171 6.87789 20 12 20C17.1221 20 21.5966 17.015 23.855 12.6079C23.9503 12.4194 24 12.2111 24 11.9998C24 11.7885 23.9503 11.5802 23.855 11.3917ZM12 18C10.8133 18 9.65325 17.6481 8.66656 16.9888C7.67986 16.3295 6.91083 15.3925 6.4567 14.2961C6.00257 13.1997 5.88375 11.9933 6.11527 10.8295C6.34678 9.66557 6.91822 8.59647 7.75734 7.75736C8.59645 6.91824 9.66555 6.3468 10.8294 6.11529C11.9933 5.88378 13.1997 6.0026 14.2961 6.45672C15.3924 6.91085 16.3295 7.67988 16.9888 8.66658C17.6481 9.65327 18 10.8133 18 12C18.0004 12.788 17.8454 13.5684 17.544 14.2966C17.2426 15.0247 16.8007 15.6863 16.2435 16.2435C15.6862 16.8007 15.0247 17.2427 14.2965 17.5441C13.5684 17.8455 12.788 18.0004 12 18ZM12 8C11.6429 8.00499 11.2882 8.05811 10.9454 8.15792C11.228 8.54195 11.3636 9.01454 11.3276 9.48998C11.2917 9.96542 11.0865 10.4122 10.7494 10.7494C10.4122 11.0865 9.96539 11.2917 9.48995 11.3276C9.01451 11.3636 8.54192 11.228 8.15789 10.9454C7.93921 11.7511 7.97869 12.605 8.27076 13.3871C8.56283 14.1691 9.0928 14.8399 9.78607 15.305C10.4793 15.7701 11.301 16.006 12.1354 15.9797C12.9698 15.9533 13.7749 15.666 14.4374 15.158C15.1 14.6501 15.5865 13.9473 15.8287 13.1483C16.0708 12.3494 16.0563 11.4947 15.7872 10.7044C15.5181 9.91415 15.008 9.22818 14.3286 8.74305C13.6492 8.25791 12.8348 7.99803 12 8Z"/>
    </symbol>
    <symbol id="github_logo" width="currentWidth" height="currentHeight" viewBox="0 0 28 28" fill="currentColor">
        <path d="M9.51016 21.7328C9.51016 21.8422 9.38437 21.9297 9.22578 21.9297C9.04531 21.9461 8.91953 21.8586 8.91953 21.7328C8.91953 21.6234 9.04531 21.5359 9.20391 21.5359C9.36797 21.5195 9.51016 21.607 9.51016 21.7328ZM7.80938 21.4867C7.77109 21.5961 7.88047 21.7219 8.04453 21.7547C8.18672 21.8094 8.35078 21.7547 8.38359 21.6453C8.41641 21.5359 8.3125 21.4102 8.14844 21.3609C8.00625 21.3227 7.84766 21.3773 7.80938 21.4867ZM10.2266 21.3938C10.068 21.432 9.95859 21.5359 9.975 21.6617C9.99141 21.7711 10.1336 21.8422 10.2977 21.8039C10.4563 21.7656 10.5656 21.6617 10.5492 21.5523C10.5328 21.4484 10.3852 21.3773 10.2266 21.3938ZM13.825 0.4375C6.23984 0.4375 0.4375 6.19609 0.4375 13.7812C0.4375 19.8461 4.25469 25.0359 9.70703 26.8625C10.407 26.9883 10.6531 26.5562 10.6531 26.2008C10.6531 25.8617 10.6367 23.9914 10.6367 22.843C10.6367 22.843 6.80859 23.6633 6.00469 21.2133C6.00469 21.2133 5.38125 19.6219 4.48438 19.2117C4.48438 19.2117 3.23203 18.3531 4.57188 18.3695C4.57188 18.3695 5.93359 18.4789 6.68281 19.7805C7.88047 21.8914 9.8875 21.2844 10.6695 20.9234C10.7953 20.0484 11.1508 19.4414 11.5445 19.0805C8.4875 18.7414 5.40313 18.2984 5.40313 13.0375C5.40313 11.5336 5.81875 10.7789 6.69375 9.81641C6.55156 9.46094 6.08672 7.99531 6.83594 6.10313C7.97891 5.74766 10.6094 7.57969 10.6094 7.57969C11.7031 7.27344 12.8789 7.11484 14.0437 7.11484C15.2086 7.11484 16.3844 7.27344 17.4781 7.57969C17.4781 7.57969 20.1086 5.74219 21.2516 6.10313C22.0008 8.00078 21.5359 9.46094 21.3938 9.81641C22.2688 10.7844 22.8047 11.5391 22.8047 13.0375C22.8047 18.3148 19.5836 18.7359 16.5266 19.0805C17.0297 19.5125 17.4563 20.3328 17.4563 21.618C17.4563 23.4609 17.4398 25.7414 17.4398 26.1898C17.4398 26.5453 17.6914 26.9773 18.3859 26.8516C23.8547 25.0359 27.5625 19.8461 27.5625 13.7812C27.5625 6.19609 21.4102 0.4375 13.825 0.4375ZM5.75312 19.2992C5.68203 19.3539 5.69844 19.4797 5.79141 19.5836C5.87891 19.6711 6.00469 19.7094 6.07578 19.6383C6.14687 19.5836 6.13047 19.4578 6.0375 19.3539C5.95 19.2664 5.82422 19.2281 5.75312 19.2992ZM5.1625 18.8562C5.12422 18.9273 5.17891 19.0148 5.28828 19.0695C5.37578 19.1242 5.48516 19.1078 5.52344 19.0312C5.56172 18.9602 5.50703 18.8727 5.39766 18.818C5.28828 18.7852 5.20078 18.8016 5.1625 18.8562ZM6.93438 20.8031C6.84688 20.8742 6.87969 21.0383 7.00547 21.1422C7.13125 21.268 7.28984 21.2844 7.36094 21.1969C7.43203 21.1258 7.39922 20.9617 7.28984 20.8578C7.16953 20.732 7.00547 20.7156 6.93438 20.8031ZM6.31094 19.9992C6.22344 20.0539 6.22344 20.1961 6.31094 20.3219C6.39844 20.4477 6.54609 20.5023 6.61719 20.4477C6.70469 20.3766 6.70469 20.2344 6.61719 20.1086C6.54063 19.9828 6.39844 19.9281 6.31094 19.9992Z"/>
    </symbol>
    <symbol id="instagram_logo" width="currentWidth" height="currentHeight" viewBox="0 0 28 28" fill="currentColor">
        <path d="M14.0055 7.71099C10.5274 7.71099 7.72189 10.5165 7.72189 13.9946C7.72189 17.4727 10.5274 20.2782 14.0055 20.2782C17.4836 20.2782 20.2891 17.4727 20.2891 13.9946C20.2891 10.5165 17.4836 7.71099 14.0055 7.71099ZM14.0055 18.0797C11.7578 18.0797 9.92032 16.2477 9.92032 13.9946C9.92032 11.7415 11.7524 9.90942 14.0055 9.90942C16.2586 9.90942 18.0906 11.7415 18.0906 13.9946C18.0906 16.2477 16.2531 18.0797 14.0055 18.0797ZM22.0117 7.45396C22.0117 8.2688 21.3555 8.91958 20.5461 8.91958C19.7313 8.91958 19.0805 8.26333 19.0805 7.45396C19.0805 6.64458 19.7367 5.98833 20.5461 5.98833C21.3555 5.98833 22.0117 6.64458 22.0117 7.45396ZM26.1735 8.94146C26.0805 6.97817 25.632 5.23911 24.1938 3.8063C22.761 2.37349 21.0219 1.92505 19.0586 1.82661C17.0352 1.71177 10.9703 1.71177 8.94689 1.82661C6.98907 1.91958 5.25001 2.36802 3.81173 3.80083C2.37345 5.23364 1.93048 6.9727 1.83204 8.93599C1.7172 10.9594 1.7172 17.0243 1.83204 19.0477C1.92501 21.011 2.37345 22.75 3.81173 24.1829C5.25001 25.6157 6.98361 26.0641 8.94689 26.1625C10.9703 26.2774 17.0352 26.2774 19.0586 26.1625C21.0219 26.0696 22.761 25.6211 24.1938 24.1829C25.6266 22.75 26.075 21.011 26.1735 19.0477C26.2883 17.0243 26.2883 10.9649 26.1735 8.94146ZM23.5594 21.2188C23.1328 22.2907 22.307 23.1165 21.2297 23.5485C19.6164 24.1883 15.7883 24.0407 14.0055 24.0407C12.2227 24.0407 8.38907 24.1829 6.78126 23.5485C5.70939 23.1219 4.88361 22.2961 4.45157 21.2188C3.81173 19.6055 3.95939 15.7774 3.95939 13.9946C3.95939 12.2118 3.8172 8.37817 4.45157 6.77036C4.87814 5.69849 5.70392 4.8727 6.78126 4.44067C8.39454 3.80083 12.2227 3.94849 14.0055 3.94849C15.7883 3.94849 19.6219 3.8063 21.2297 4.44067C22.3016 4.86724 23.1274 5.69302 23.5594 6.77036C24.1992 8.38364 24.0516 12.2118 24.0516 13.9946C24.0516 15.7774 24.1992 19.611 23.5594 21.2188Z"/>
    </symbol>
    <symbol id="bitbucket_logo" width="currentWidth" height="currentHeight" viewBox="0 0 34 34" fill="currentColor">
        <path d="M1.47422 2.12502C1.33469 2.12327 1.19617 2.14902 1.06659 2.2008C0.937013 2.25258 0.818902 2.32937 0.719004 2.42681C0.619106 2.52424 0.539379 2.64039 0.484376 2.76864C0.429373 2.89688 0.400171 3.03471 0.398438 3.17424C0.399558 3.23641 0.403991 3.29848 0.411719 3.36018L4.9207 30.7262C4.9765 31.0619 5.14895 31.3672 5.40768 31.5883C5.66641 31.8093 5.99485 31.932 6.33516 31.9348H27.9637C28.218 31.9382 28.465 31.8502 28.66 31.6869C28.8549 31.5237 28.9849 31.2959 29.0262 31.0449L33.5352 3.36682C33.5793 3.08954 33.5118 2.80608 33.3476 2.57838C33.1833 2.35067 32.9356 2.19723 32.6586 2.15159C32.5969 2.14362 32.5348 2.13919 32.4727 2.1383L1.47422 2.12502ZM20.4598 21.9008H13.5535L11.6875 12.1391H22.1332L20.4598 21.9008Z"/>
    </symbol>
    <symbol id="discord_logo" width="currentWidth" height="currentHeight" viewBox="0 0 34 34" fill="currentColor">
        <path d="M21.862 16.15C21.862 17.187 21.097 18.037 20.128 18.037C19.176 18.037 18.394 17.187 18.394 16.15C18.394 15.113 19.159 14.263 20.128 14.263C21.097 14.263 21.862 15.113 21.862 16.15ZM13.923 14.263C12.954 14.263 12.189 15.113 12.189 16.15C12.189 17.187 12.971 18.037 13.923 18.037C14.892 18.037 15.657 17.187 15.657 16.15C15.674 15.113 14.892 14.263 13.923 14.263ZM31.875 3.502V34C27.5922 30.2152 28.9619 31.4681 23.987 26.843L24.888 29.988H5.61C3.689 29.988 2.125 28.424 2.125 26.486V3.502C2.125 1.564 3.689 0 5.61 0H28.39C30.311 0 31.875 1.564 31.875 3.502ZM27.03 19.618C27.03 14.144 24.582 9.707 24.582 9.707C22.134 7.871 19.805 7.922 19.805 7.922L19.567 8.194C22.457 9.078 23.8 10.353 23.8 10.353C19.7618 8.13975 15.0182 8.13935 11.101 9.86C10.472 10.149 10.098 10.353 10.098 10.353C10.098 10.353 11.509 9.01 14.569 8.126L14.399 7.922C14.399 7.922 12.07 7.871 9.622 9.707C9.622 9.707 7.174 14.144 7.174 19.618C7.174 19.618 8.602 22.083 12.359 22.202C12.359 22.202 12.988 21.437 13.498 20.791C11.339 20.145 10.523 18.785 10.523 18.785C10.7731 18.96 11.1855 19.187 11.22 19.21C14.0894 20.8169 18.1653 21.3434 21.828 19.805C22.423 19.584 23.086 19.261 23.783 18.802C23.783 18.802 22.933 20.196 20.706 20.825C21.216 21.471 21.828 22.202 21.828 22.202C25.585 22.083 27.03 19.618 27.03 19.618Z"/>
    </symbol>
    <symbol id="facebook_logo" width="currentWidth" height="currentHeight" viewBox="0 0 34 34" fill="currentColor">
        <path d="M33.4688 17C33.4688 7.90234 26.0977 0.53125 17 0.53125C7.90234 0.53125 0.53125 7.90234 0.53125 17C0.53125 25.2198 6.55363 32.033 14.4268 33.2695V21.7607H10.2432V17H14.4268V13.3716C14.4268 9.24441 16.8838 6.96469 20.647 6.96469C22.4493 6.96469 24.3339 7.28609 24.3339 7.28609V11.3369H22.2567C20.2114 11.3369 19.5732 12.6066 19.5732 13.9088V17H24.1407L23.4102 21.7607H19.5732V33.2695C27.4464 32.033 33.4688 25.2198 33.4688 17Z"/>
    </symbol>
    <symbol id="linkedin_logo" width="currentWidth" height="currentHeight" viewBox="0 0 34 34" fill="currentColor">
        <path d="M29.75 2.125H4.24336C3.07461 2.125 2.125 3.08789 2.125 4.26992V29.7301C2.125 30.9121 3.07461 31.875 4.24336 31.875H29.75C30.9188 31.875 31.875 30.9121 31.875 29.7301V4.26992C31.875 3.08789 30.9188 2.125 29.75 2.125ZM11.1164 27.625H6.70703V13.4273H11.123V27.625H11.1164ZM8.91172 11.4883C7.49727 11.4883 6.35508 10.3395 6.35508 8.93164C6.35508 7.52383 7.49727 6.375 8.91172 6.375C10.3195 6.375 11.4684 7.52383 11.4684 8.93164C11.4684 10.3461 10.3262 11.4883 8.91172 11.4883ZM27.6449 27.625H23.2355V20.7188C23.2355 19.0719 23.2023 16.9535 20.9445 16.9535C18.6469 16.9535 18.2949 18.7465 18.2949 20.5992V27.625H13.8855V13.4273H18.1156V15.3664H18.1754C18.7664 14.2508 20.2074 13.0754 22.3523 13.0754C26.8148 13.0754 27.6449 16.0172 27.6449 19.8422V27.625Z"/>
    </symbol>
    <symbol id="snapchat_logo" width="currentWidth" height="currentHeight" viewBox="0 0 34 34" fill="currentColor">
        <path d="M17 0.53125C7.90234 0.53125 0.53125 7.90234 0.53125 17C0.53125 26.0977 7.90234 33.4688 17 33.4688C26.0977 33.4688 33.4688 26.0977 33.4688 17C33.4688 7.90234 26.0977 0.53125 17 0.53125ZM28.2559 23.0363C28.0234 23.5742 27.0539 23.966 25.2809 24.2449C25.1879 24.3711 25.1148 24.8957 24.9953 25.3008C24.9223 25.5465 24.7496 25.6926 24.4574 25.6926H24.4441C24.0324 25.6926 23.5941 25.5 22.7309 25.5C21.5621 25.5 21.157 25.7656 20.2473 26.4098C19.2844 27.0938 18.3613 27.6781 16.9801 27.6184C15.5855 27.7246 14.4168 26.8746 13.7594 26.4098C12.843 25.7656 12.4445 25.5 11.2758 25.5C10.4457 25.5 9.92109 25.7059 9.5625 25.7059C9.20391 25.7059 9.06445 25.4867 9.01133 25.3074C8.8918 24.9023 8.81875 24.3711 8.72578 24.2449C7.80938 24.1055 5.75078 23.7469 5.7043 22.8238C5.69102 22.5848 5.85703 22.3723 6.09609 22.3324C9.1707 21.8277 10.552 18.6734 10.6117 18.5406C10.6117 18.534 10.6184 18.5273 10.625 18.5207C10.791 18.1887 10.8242 17.9098 10.7313 17.6906C10.5055 17.166 9.54258 16.9801 9.1375 16.8141C8.08828 16.4023 7.94219 15.9242 8.00859 15.5988C8.11484 15.0344 8.96484 14.6824 9.46289 14.9148C9.85469 15.1008 10.2066 15.1938 10.5055 15.1938C10.7246 15.1938 10.8707 15.1406 10.9438 15.1008C10.8508 13.5137 10.6316 11.2492 11.1961 9.98086C12.6902 6.64063 15.8512 6.375 16.7809 6.375C16.8207 6.375 17.1859 6.36836 17.2258 6.36836C19.5301 6.36836 21.7414 7.55039 22.8238 9.97422C23.3883 11.2426 23.1691 13.5004 23.0762 15.0941C23.1492 15.134 23.2688 15.1805 23.4547 15.1871C23.7402 15.1738 24.0656 15.0809 24.4309 14.9082C24.6965 14.782 25.0684 14.802 25.334 14.9082C25.7523 15.0609 26.018 15.3598 26.0246 15.6984C26.0312 16.1301 25.6461 16.502 24.8824 16.8008C24.7895 16.8406 24.6766 16.8738 24.557 16.9137C24.1254 17.0531 23.468 17.259 23.2953 17.6773C23.2023 17.8965 23.2422 18.1754 23.4016 18.5074C23.4082 18.5141 23.4082 18.5207 23.4148 18.5273C23.4746 18.6602 24.8559 21.8145 27.9305 22.3191C28.1961 22.3855 28.402 22.6844 28.2559 23.0363Z"/>
    </symbol>
    <symbol id="twitch_logo" width="currentWidth" height="currentHeight" viewBox="0 0 34 34" fill="currentColor">
        <path d="M4.78789 2.125L2.78906 7.23164V28.1031H9.89453V31.875H13.8922L17.6641 28.1031H23.4414L31.2109 20.3336V2.125H4.78789ZM28.548 18.9988L24.1055 23.4414H17L13.2281 27.2133V23.4414H7.23164V4.78789H28.548V18.9988ZM24.1055 9.89453V17.6574H21.4426V9.89453H24.1055ZM17 9.89453V17.6574H14.3371V9.89453H17Z"/>
    </symbol>
    <symbol id="whatsapp_logo" width="currentWidth" height="currentHeight" viewBox="0 0 34 34" fill="currentColor">
        <path d="M27.4191 6.44805C24.6367 3.65898 20.9312 2.125 16.9934 2.125C8.86523 2.125 2.25117 8.73906 2.25117 16.8672C2.25117 19.4637 2.92852 22.0004 4.2168 24.2383L2.125 31.875L9.94102 29.823C12.0926 30.9984 14.5164 31.616 16.9867 31.616H16.9934C25.1148 31.616 31.875 25.002 31.875 16.8738C31.875 12.9359 30.2016 9.23711 27.4191 6.44805ZM16.9934 29.1324C14.7887 29.1324 12.6305 28.5414 10.7512 27.4258L10.3062 27.1602L5.67109 28.3754L6.90625 23.8531L6.61406 23.3883C5.38555 21.4359 4.74141 19.1848 4.74141 16.8672C4.74141 10.1137 10.2398 4.61523 17 4.61523C20.2738 4.61523 23.3484 5.89023 25.6594 8.20781C27.9703 10.5254 29.3914 13.6 29.3848 16.8738C29.3848 23.634 23.7469 29.1324 16.9934 29.1324ZM23.7137 19.9551C23.3484 19.7691 21.5355 18.8793 21.1969 18.7598C20.8582 18.6336 20.6125 18.5738 20.3668 18.9457C20.1211 19.3176 19.4172 20.141 19.198 20.3934C18.9855 20.6391 18.7664 20.6723 18.4012 20.4863C16.2363 19.4039 14.8152 18.5539 13.3875 16.1035C13.009 15.4527 13.766 15.4992 14.4699 14.0914C14.5895 13.8457 14.5297 13.6332 14.4367 13.4473C14.3438 13.2613 13.6066 11.4484 13.3012 10.7113C13.0023 9.99414 12.6969 10.0938 12.4711 10.0805C12.2586 10.0672 12.0129 10.0672 11.7672 10.0672C11.5215 10.0672 11.123 10.1602 10.7844 10.5254C10.4457 10.8973 9.49609 11.7871 9.49609 13.6C9.49609 15.4129 10.8176 17.166 10.9969 17.4117C11.1828 17.6574 13.5934 21.3762 17.2922 22.9766C19.6297 23.9859 20.5461 24.0723 21.7148 23.8996C22.4254 23.7934 23.893 23.0098 24.1984 22.1465C24.5039 21.2832 24.5039 20.5461 24.4109 20.3934C24.3246 20.2273 24.0789 20.1344 23.7137 19.9551Z"/>
    </symbol>
    <symbol id="youtube_logo" width="currentWidth" height="currentHeight" viewBox="0 0 34 34" fill="currentColor">
        <path d="M32.4463 9.21324C32.0755 7.81723 30.9831 6.71778 29.5962 6.34466C27.0822 5.66667 17.0013 5.66667 17.0013 5.66667C17.0013 5.66667 6.92059 5.66667 4.40653 6.34466C3.01956 6.71784 1.92719 7.81723 1.55644 9.21324C0.882812 11.7436 0.882812 17.0229 0.882812 17.0229C0.882812 17.0229 0.882812 22.3022 1.55644 24.8326C1.92719 26.2286 3.01956 27.2822 4.40653 27.6553C6.92059 28.3333 17.0013 28.3333 17.0013 28.3333C17.0013 28.3333 27.0821 28.3333 29.5962 27.6553C30.9831 27.2822 32.0755 26.2286 32.4463 24.8326C33.1199 22.3022 33.1199 17.0229 33.1199 17.0229C33.1199 17.0229 33.1199 11.7436 32.4463 9.21324ZM13.7044 21.8161V12.2297L22.1299 17.023L13.7044 21.8161Z"/>
    </symbol>
    <symbol id="twitter_logo" width="currentWidth" height="currentHeight" viewBox="0 0 34 34" fill="currentColor">
        <path d="M30.505 10.0749C30.5266 10.3769 30.5266 10.679 30.5266 10.981C30.5266 20.1929 23.5152 30.8071 10.7005 30.8071C6.75252 30.8071 3.08504 29.6637 0 27.679C0.560934 27.7437 1.10022 27.7652 1.68273 27.7652C4.94029 27.7652 7.93907 26.665 10.3337 24.7881C7.27029 24.7234 4.70302 22.717 3.81849 19.9556C4.25 20.0203 4.68144 20.0634 5.13453 20.0634C5.76014 20.0634 6.38582 19.9771 6.96827 19.8262C3.77539 19.1789 1.38065 16.3744 1.38065 12.9873V12.9011C2.30828 13.4188 3.38705 13.7424 4.53037 13.7855C2.65346 12.5342 1.42382 10.3985 1.42382 7.98222C1.42382 6.68783 1.76893 5.50128 2.37303 4.46574C5.80324 8.69416 10.9594 11.4555 16.741 11.7576C16.6332 11.2398 16.5684 10.7006 16.5684 10.1612C16.5684 6.32107 19.675 3.19293 23.5367 3.19293C25.543 3.19293 27.3552 4.0343 28.6281 5.39344C30.2029 5.09142 31.713 4.5089 33.0507 3.7107C32.5328 5.32876 31.4326 6.68789 29.9872 7.55078C31.3895 7.39983 32.7486 7.01142 33.9999 6.47214C33.0508 7.85279 31.8642 9.08244 30.505 10.0749Z"/>
    </symbol>
    <symbol id="like_icon" width="currentWidth" height="currentHeight" viewBox="0 0 24 24" fill="currentColor"
            stroke="currentStroke">
        <path d="M12.62 20.8101C12.28 20.9301 11.72 20.9301 11.38 20.8101C8.48 19.8201 2 15.6901 2 8.6901C2 5.6001 4.49 3.1001 7.56 3.1001C9.38 3.1001 10.99 3.9801 12 5.3401C12.5138 4.64597 13.183 4.08182 13.954 3.69284C14.725 3.30386 15.5764 3.10086 16.44 3.1001C19.51 3.1001 22 5.6001 22 8.6901C22 15.6901 15.52 19.8201 12.62 20.8101Z"
              stroke-width="1.5" stroke-linecap="round" stroke-linejoin="round"/>
    </symbol>
    <symbol id="dividing_line" width="currentWidth" height="currentHeight" viewBox="0 0 2 34" fill="none"
            stroke="currentColor">
        <line x1="1" y1="1" x2="0.999999" y2="33" stroke-width="2" stroke-linecap="round"/>
    </symbol>
    <symbol id="location_icon" width="currentWidth" height="currentHeight" viewBox="0 0 24 24" fill="currentColor">
        <path d="M20.8369 0.164934L1.34719 9.16025C-0.901406 10.2098 -0.151875 13.5079 2.24672 13.5079H10.4925V21.7537C10.4925 24.1523 13.7906 24.9023 14.8402 22.6532L23.8355 3.16353C24.585 1.364 22.6359 -0.585066 20.8369 0.164934Z"/>
    </symbol>
    <symbol id="mail_logo" width="currentWidth" height="currentHeight" viewBox="0 0 28 28" fill="currentColor">
        <path d="M27.4695 10.4344C27.6828 10.2648 28 10.4234 28 10.6914V21.875C28 23.3242 26.8242 24.5 25.375 24.5H2.625C1.17578 24.5 0 23.3242 0 21.875V10.6969C0 10.4234 0.311719 10.2703 0.530469 10.4398C1.75547 11.3914 3.37969 12.6 8.95781 16.6523C10.1117 17.4945 12.0586 19.2664 14 19.2555C15.9523 19.2719 17.9375 17.4617 19.0477 16.6523C24.6258 12.6 26.2445 11.3859 27.4695 10.4344ZM14 17.5C15.2688 17.5219 17.0953 15.9031 18.0141 15.2359C25.2711 9.96953 25.8234 9.51016 27.4969 8.19766C27.8141 7.95156 28 7.56875 28 7.16406V6.125C28 4.67578 26.8242 3.5 25.375 3.5H2.625C1.17578 3.5 0 4.67578 0 6.125V7.16406C0 7.56875 0.185937 7.94609 0.503125 8.19766C2.17656 9.50469 2.72891 9.96953 9.98594 15.2359C10.9047 15.9031 12.7312 17.5219 14 17.5Z"/>
    </symbol>
    <symbol id="search_icon" width="currentWidth" height="currentHeight" viewBox="0 0 20 20" fill="currentColor">
        <path d="M19.7266 17.293L15.832 13.3984C15.6563 13.2227 15.418 13.125 15.168 13.125H14.5313C15.6094 11.7461 16.25 10.0117 16.25 8.125C16.25 3.63672 12.6133 0 8.125 0C3.63672 0 0 3.63672 0 8.125C0 12.6133 3.63672 16.25 8.125 16.25C10.0117 16.25 11.7461 15.6094 13.125 14.5313V15.168C13.125 15.418 13.2227 15.6563 13.3984 15.832L17.293 19.7266C17.6602 20.0938 18.2539 20.0938 18.6172 19.7266L19.7227 18.6211C20.0898 18.2539 20.0898 17.6602 19.7266 17.293ZM8.125 13.125C5.36328 13.125 3.125 10.8906 3.125 8.125C3.125 5.36328 5.35938 3.125 8.125 3.125C10.8867 3.125 13.125 5.35938 13.125 8.125C13.125 10.8867 10.8906 13.125 8.125 13.125Z"/>
    </symbol>
    <symbol id="telegram_logo" width="currentWidth" height="currentHeight" viewBox="0 0 28 28" fill="currentColor">
        <path d="M14 0.4375C6.50781 0.4375 0.4375 6.50781 0.4375 14C0.4375 21.4922 6.50781 27.5625 14 27.5625C21.4922 27.5625 27.5625 21.4922 27.5625 14C27.5625 6.50781 21.4922 0.4375 14 0.4375ZM20.6609 9.72891L18.4352 20.218C18.2711 20.9617 17.8281 21.1422 17.2102 20.7922L13.8195 18.293L12.1844 19.868C12.0039 20.0484 11.8508 20.2016 11.5008 20.2016L11.7414 16.7508L18.025 11.0742C18.2984 10.8336 17.9648 10.6969 17.6039 10.9375L9.83828 15.8266L6.49141 14.782C5.76406 14.5523 5.74766 14.0547 6.64453 13.7047L19.7203 8.6625C20.3273 8.44375 20.8578 8.81016 20.6609 9.72891Z"/>
    </symbol>
    <symbol id="sort_amount_down" width="currentWidth" height="currentHeight" viewBox="0 0 28 28" fill="currentColor">
        <path d="M16.625 22.75H13.125C12.893 22.75 12.6704 22.8422 12.5063 23.0063C12.3422 23.1704 12.25 23.3929 12.25 23.625V25.375C12.25 25.6071 12.3422 25.8296 12.5063 25.9937C12.6704 26.1578 12.893 26.25 13.125 26.25H16.625C16.8571 26.25 17.0797 26.1578 17.2438 25.9937C17.4079 25.8296 17.5 25.6071 17.5 25.375V23.625C17.5 23.3929 17.4079 23.1704 17.2438 23.0063C17.0797 22.8422 16.8571 22.75 16.625 22.75ZM9.62504 19.25H7.00004V2.625C7.00004 2.39294 6.90785 2.17038 6.74376 2.00628C6.57967 1.84219 6.35711 1.75 6.12504 1.75H4.37504C4.14298 1.75 3.92042 1.84219 3.75632 2.00628C3.59223 2.17038 3.50004 2.39294 3.50004 2.625V19.25H0.875042C0.0990265 19.25 -0.29363 20.1928 0.25762 20.7435L4.63262 25.9935C4.7967 26.1575 5.01917 26.2496 5.25114 26.2496C5.4831 26.2496 5.70557 26.1575 5.86965 25.9935L10.2447 20.7435C10.7926 20.1939 10.4027 19.25 9.62504 19.25ZM23.625 8.75H13.125C12.893 8.75 12.6704 8.84219 12.5063 9.00628C12.3422 9.17038 12.25 9.39294 12.25 9.625V11.375C12.25 11.6071 12.3422 11.8296 12.5063 11.9937C12.6704 12.1578 12.893 12.25 13.125 12.25H23.625C23.8571 12.25 24.0797 12.1578 24.2438 11.9937C24.4079 11.8296 24.5 11.6071 24.5 11.375V9.625C24.5 9.39294 24.4079 9.17038 24.2438 9.00628C24.0797 8.84219 23.8571 8.75 23.625 8.75ZM20.125 15.75H13.125C12.893 15.75 12.6704 15.8422 12.5063 16.0063C12.3422 16.1704 12.25 16.3929 12.25 16.625V18.375C12.25 18.6071 12.3422 18.8296 12.5063 18.9937C12.6704 19.1578 12.893 19.25 13.125 19.25H20.125C20.3571 19.25 20.5797 19.1578 20.7438 18.9937C20.9079 18.8296 21 18.6071 21 18.375V16.625C21 16.3929 20.9079 16.1704 20.7438 16.0063C20.5797 15.8422 20.3571 15.75 20.125 15.75ZM27.125 1.75H13.125C12.893 1.75 12.6704 1.84219 12.5063 2.00628C12.3422 2.17038 12.25 2.39294 12.25 2.625V4.375C12.25 4.60706 12.3422 4.82962 12.5063 4.99372C12.6704 5.15781 12.893 5.25 13.125 5.25H27.125C27.3571 5.25 27.5797 5.15781 27.7438 4.99372C27.9079 4.82962 28 4.60706 28 4.375V2.625C28 2.39294 27.9079 2.17038 27.7438 2.00628C27.5797 1.84219 27.3571 1.75 27.125 1.75Z"/>
    </symbol>
    <symbol id="sort_amount_down_alt" width="currentWidth" height="currentHeight" viewBox="0 0 28 28"
            fill="currentColor">
        <path d="M13.125 5.25H16.625C16.8571 5.25 17.0797 5.15781 17.2438 4.99372C17.4079 4.82962 17.5 4.60706 17.5 4.375V2.625C17.5 2.39294 17.4079 2.17038 17.2438 2.00628C17.0797 1.84219 16.8571 1.75 16.625 1.75H13.125C12.893 1.75 12.6704 1.84219 12.5063 2.00628C12.3422 2.17038 12.25 2.39294 12.25 2.625V4.375C12.25 4.60706 12.3422 4.82962 12.5063 4.99372C12.6704 5.15781 12.893 5.25 13.125 5.25ZM13.125 12.25H20.125C20.3571 12.25 20.5797 12.1578 20.7438 11.9937C20.9079 11.8296 21 11.6071 21 11.375V9.625C21 9.39294 20.9079 9.17038 20.7438 9.00628C20.5797 8.84219 20.3571 8.75 20.125 8.75H13.125C12.893 8.75 12.6704 8.84219 12.5063 9.00628C12.3422 9.17038 12.25 9.39294 12.25 9.625V11.375C12.25 11.6071 12.3422 11.8296 12.5063 11.9937C12.6704 12.1578 12.893 12.25 13.125 12.25ZM27.125 22.75H13.125C12.893 22.75 12.6704 22.8422 12.5063 23.0063C12.3422 23.1704 12.25 23.3929 12.25 23.625V25.375C12.25 25.6071 12.3422 25.8296 12.5063 25.9937C12.6704 26.1578 12.893 26.25 13.125 26.25H27.125C27.3571 26.25 27.5797 26.1578 27.7438 25.9937C27.9079 25.8296 28 25.6071 28 25.375V23.625C28 23.3929 27.9079 23.1704 27.7438 23.0063C27.5797 22.8422 27.3571 22.75 27.125 22.75ZM13.125 19.25H23.625C23.8571 19.25 24.0797 19.1578 24.2438 18.9937C24.4079 18.8296 24.5 18.6071 24.5 18.375V16.625C24.5 16.3929 24.4079 16.1704 24.2438 16.0063C24.0797 15.8422 23.8571 15.75 23.625 15.75H13.125C12.893 15.75 12.6704 15.8422 12.5063 16.0063C12.3422 16.1704 12.25 16.3929 12.25 16.625V18.375C12.25 18.6071 12.3422 18.8296 12.5063 18.9937C12.6704 19.1578 12.893 19.25 13.125 19.25ZM9.62504 19.25H7.00004V2.625C7.00004 2.39294 6.90785 2.17038 6.74376 2.00628C6.57967 1.84219 6.35711 1.75 6.12504 1.75H4.37504C4.14298 1.75 3.92042 1.84219 3.75632 2.00628C3.59223 2.17038 3.50004 2.39294 3.50004 2.625V19.25H0.875042C0.0990265 19.25 -0.29363 20.1928 0.25762 20.7435L4.63262 25.9935C4.7967 26.1575 5.01917 26.2496 5.25114 26.2496C5.4831 26.2496 5.70557 26.1575 5.86965 25.9935L10.2447 20.7435C10.7926 20.1939 10.4027 19.25 9.62504 19.25Z"/>
    </symbol>
    <symbol id="sort_numeric_down_alt" width="currentWidth" height="currentHeight" viewBox="0 0 28 28"
            fill="currentColor">
        <path d="M11.375 19.25H8.75004V2.625C8.75004 2.39294 8.65786 2.17038 8.49376 2.00628C8.32967 1.84219 8.10711 1.75 7.87504 1.75H6.12504C5.89298 1.75 5.67042 1.84219 5.50633 2.00628C5.34223 2.17038 5.25004 2.39294 5.25004 2.625V19.25H2.62504C1.84903 19.25 1.45692 20.1928 2.00762 20.7435L6.38262 25.9935C6.5467 26.1575 6.76917 26.2496 7.00114 26.2496C7.2331 26.2496 7.45557 26.1575 7.61965 25.9935L11.9947 20.7435C12.5426 20.1939 12.1527 19.25 11.375 19.25ZM23.625 22.75H22.75V16.625C22.75 16.3929 22.6579 16.1704 22.4938 16.0063C22.3297 15.8422 22.1071 15.75 21.875 15.75H19.25C19.0878 15.7501 18.9288 15.7954 18.7908 15.8806C18.6528 15.9659 18.5413 16.0879 18.4686 16.2329L17.5936 17.9829C17.5267 18.1162 17.4951 18.2645 17.5016 18.4135C17.5082 18.5625 17.5527 18.7074 17.631 18.8343C17.7093 18.9613 17.8188 19.0661 17.949 19.1389C18.0792 19.2116 18.2259 19.2499 18.375 19.25H19.25V22.75H18.375C18.143 22.75 17.9204 22.8422 17.7563 23.0063C17.5922 23.1704 17.5 23.3929 17.5 23.625V25.375C17.5 25.6071 17.5922 25.8296 17.7563 25.9937C17.9204 26.1578 18.143 26.25 18.375 26.25H23.625C23.8571 26.25 24.0797 26.1578 24.2438 25.9937C24.4079 25.8296 24.5 25.6071 24.5 25.375V23.625C24.5 23.3929 24.4079 23.1704 24.2438 23.0063C24.0797 22.8422 23.8571 22.75 23.625 22.75ZM19.8062 1.90914C19.0933 2.10439 18.4424 2.47927 17.9158 2.99794C17.3892 3.51661 17.0045 4.16172 16.7984 4.87156C16.018 7.66336 17.9572 10.2184 20.5625 10.4787C20.219 10.7685 19.8349 11.0063 19.4223 11.1847C19.0083 11.3706 18.8317 11.8666 18.975 12.297L19.5164 13.3908C19.6733 13.8627 20.2016 14.1285 20.6593 13.9327C23.8312 12.5781 25.3761 10.5634 25.3761 6.71398V6.125C25.375 3.32445 22.7293 1.12984 19.8062 1.90914ZM21 7.21875C20.7837 7.21875 20.5723 7.1546 20.3924 7.03442C20.2125 6.91424 20.0723 6.74342 19.9895 6.54356C19.9068 6.3437 19.8851 6.12379 19.9273 5.91162C19.9695 5.69945 20.0737 5.50457 20.2266 5.3516C20.3796 5.19864 20.5745 5.09447 20.7867 5.05227C20.9988 5.01006 21.2187 5.03172 21.4186 5.11451C21.6185 5.19729 21.7893 5.33748 21.9095 5.51734C22.0296 5.69721 22.0938 5.90868 22.0938 6.125C22.0938 6.41508 21.9786 6.69328 21.7734 6.8984C21.5683 7.10352 21.2901 7.21875 21 7.21875Z"/>
    </symbol>
    <symbol id="sort_numeric_down" width="currentWidth" height="currentHeight" viewBox="0 0 28 28" fill="currentColor">
        <path d="M18.375 5.25H19.25V8.75H18.375C18.143 8.75 17.9204 8.84219 17.7563 9.00628C17.5922 9.17038 17.5 9.39294 17.5 9.625V11.375C17.5 11.6071 17.5922 11.8296 17.7563 11.9937C17.9204 12.1578 18.143 12.25 18.375 12.25H23.625C23.8571 12.25 24.0797 12.1578 24.2438 11.9937C24.4079 11.8296 24.5 11.6071 24.5 11.375V9.625C24.5 9.39294 24.4079 9.17038 24.2438 9.00628C24.0797 8.84219 23.8571 8.75 23.625 8.75H22.75V2.625C22.75 2.39294 22.6579 2.17038 22.4938 2.00628C22.3297 1.84219 22.1071 1.75 21.875 1.75H19.25C19.0878 1.75014 18.9288 1.79537 18.7908 1.88064C18.6528 1.96591 18.5413 2.08787 18.4686 2.23289L17.5936 3.98289C17.5267 4.11624 17.4951 4.26446 17.5016 4.41348C17.5082 4.56249 17.5527 4.70736 17.631 4.83432C17.7093 4.96128 17.8188 5.06611 17.949 5.13886C18.0792 5.21162 18.2259 5.24987 18.375 5.25ZM19.8051 14.1591C19.0922 14.3544 18.4413 14.7293 17.9147 15.2479C17.3881 15.7666 17.0034 16.4117 16.7973 17.1216C16.018 19.9134 17.9572 22.4684 20.5625 22.7287C20.219 23.0185 19.8349 23.2563 19.4223 23.4347C19.0083 23.6206 18.8317 24.1166 18.975 24.547L19.5164 25.6408C19.6733 26.1127 20.2016 26.3785 20.6593 26.1827C23.8312 24.8287 25.3761 22.8134 25.3761 18.964V18.375C25.375 15.5745 22.7293 13.3798 19.8062 14.1591H19.8051ZM21 19.4688C20.7837 19.4688 20.5723 19.4046 20.3924 19.2844C20.2125 19.1642 20.0723 18.9934 19.9895 18.7936C19.9068 18.5937 19.8851 18.3738 19.9273 18.1616C19.9695 17.9495 20.0737 17.7546 20.2266 17.6016C20.3796 17.4486 20.5745 17.3445 20.7867 17.3023C20.9988 17.2601 21.2187 17.2817 21.4186 17.3645C21.6185 17.4473 21.7893 17.5875 21.9095 17.7673C22.0296 17.9472 22.0938 18.1587 22.0938 18.375C22.0938 18.6651 21.9786 18.9433 21.7734 19.1484C21.5683 19.3535 21.2901 19.4688 21 19.4688ZM11.375 19.25H8.75004V2.625C8.75004 2.39294 8.65786 2.17038 8.49376 2.00628C8.32967 1.84219 8.10711 1.75 7.87504 1.75H6.12504C5.89298 1.75 5.67042 1.84219 5.50633 2.00628C5.34223 2.17038 5.25004 2.39294 5.25004 2.625V19.25H2.62504C1.84903 19.25 1.45692 20.1928 2.00762 20.7435L6.38262 25.9935C6.5467 26.1575 6.76917 26.2496 7.00114 26.2496C7.2331 26.2496 7.45557 26.1575 7.61965 25.9935L11.9947 20.7435C12.5426 20.1939 12.1527 19.25 11.375 19.25Z"/>
    </symbol>
    <symbol id="sort_alpha_down_alt" width="currentWidth" height="currentHeight" viewBox="0 0 28 28"
            fill="currentColor">
        <path d="M11.375 19.25H8.75004V2.625C8.75004 2.39294 8.65786 2.17038 8.49376 2.00628C8.32967 1.84219 8.10711 1.75 7.87504 1.75H6.12504C5.89298 1.75 5.67042 1.84219 5.50633 2.00628C5.34223 2.17038 5.25004 2.39294 5.25004 2.625V19.25H2.62504C1.84903 19.25 1.45692 20.1928 2.00762 20.7435L6.38262 25.9935C6.5467 26.1575 6.76917 26.2496 7.00114 26.2496C7.2331 26.2496 7.45557 26.1575 7.61965 25.9935L11.9947 20.7435C12.5426 20.1939 12.1527 19.25 11.375 19.25ZM17.5 12.25H24.5C24.7321 12.25 24.9547 12.1578 25.1188 11.9937C25.2829 11.8296 25.375 11.6071 25.375 11.375V9.625C25.375 9.39294 25.2829 9.17038 25.1188 9.00628C24.9547 8.84219 24.7321 8.75 24.5 8.75H21.4375L24.7877 4.89727C24.9724 4.73306 25.1203 4.53159 25.2215 4.30612C25.3227 4.08065 25.3751 3.8363 25.375 3.58914V2.625C25.375 2.39294 25.2829 2.17038 25.1188 2.00628C24.9547 1.84219 24.7321 1.75 24.5 1.75H17.5C17.268 1.75 17.0454 1.84219 16.8813 2.00628C16.7172 2.17038 16.625 2.39294 16.625 2.625V4.375C16.625 4.60706 16.7172 4.82962 16.8813 4.99372C17.0454 5.15781 17.268 5.25 17.5 5.25H20.5625L17.2124 9.10273C17.0277 9.26694 16.8798 9.46841 16.7786 9.69388C16.6773 9.91935 16.625 10.1637 16.625 10.4109V11.375C16.625 11.6071 16.7172 11.8296 16.8813 11.9937C17.0454 12.1578 17.268 12.25 17.5 12.25ZM26.1986 25.0808L22.9573 16.3308C22.8966 16.1608 22.7848 16.0137 22.6373 15.9098C22.4898 15.8058 22.3137 15.75 22.1332 15.75H19.8669C19.6864 15.75 19.5103 15.8058 19.3628 15.9098C19.2152 16.0137 19.1035 16.1608 19.0428 16.3308L15.8015 25.0808C15.7543 25.2128 15.7396 25.3542 15.7585 25.4931C15.7774 25.632 15.8294 25.7643 15.9102 25.8789C15.9909 25.9935 16.0979 26.087 16.2224 26.1516C16.3468 26.2162 16.4849 26.2499 16.625 26.25H17.9829C18.168 26.2501 18.3483 26.1914 18.498 26.0826C18.6476 25.9737 18.7589 25.8202 18.8158 25.6441L19.0575 24.9375H22.9404L23.1815 25.6441C23.2386 25.8205 23.3502 25.9743 23.5003 26.0832C23.6504 26.1921 23.8312 26.2505 24.0166 26.25H25.375C25.5152 26.2499 25.6533 26.2162 25.7777 26.1516C25.9021 26.087 26.0092 25.9935 26.0899 25.8789C26.1707 25.7643 26.2227 25.632 26.2416 25.4931C26.2605 25.3542 26.2458 25.2128 26.1986 25.0808ZM20.1037 21.875L21 19.25L21.8964 21.875H20.1037Z"/>
    </symbol>
    <symbol id="sort_alpha_down" width="currentWidth" height="currentHeight" viewBox="0 0 28 28" fill="currentColor">
        <path d="M11.375 19.25H8.75004V2.625C8.75004 2.39294 8.65786 2.17038 8.49376 2.00628C8.32967 1.84219 8.10711 1.75 7.87504 1.75H6.12504C5.89298 1.75 5.67042 1.84219 5.50633 2.00628C5.34223 2.17038 5.25004 2.39294 5.25004 2.625V19.25H2.62504C1.84903 19.25 1.45692 20.1928 2.00762 20.7435L6.38262 25.9935C6.5467 26.1575 6.76917 26.2496 7.00114 26.2496C7.2331 26.2496 7.45557 26.1575 7.61965 25.9935L11.9947 20.7435C12.5426 20.1939 12.1527 19.25 11.375 19.25ZM24.5 15.75H17.5C17.268 15.75 17.0454 15.8422 16.8813 16.0063C16.7172 16.1704 16.625 16.3929 16.625 16.625V18.375C16.625 18.6071 16.7172 18.8296 16.8813 18.9937C17.0454 19.1578 17.268 19.25 17.5 19.25H20.5625L17.2124 23.1027C17.0277 23.2669 16.8798 23.4684 16.7786 23.6939C16.6773 23.9193 16.625 24.1637 16.625 24.4109V25.375C16.625 25.6071 16.7172 25.8296 16.8813 25.9937C17.0454 26.1578 17.268 26.25 17.5 26.25H24.5C24.7321 26.25 24.9547 26.1578 25.1188 25.9937C25.2829 25.8296 25.375 25.6071 25.375 25.375V23.625C25.375 23.3929 25.2829 23.1704 25.1188 23.0063C24.9547 22.8422 24.7321 22.75 24.5 22.75H21.4375L24.7877 18.8973C24.9724 18.7331 25.1203 18.5316 25.2215 18.3061C25.3227 18.0807 25.3751 17.8363 25.375 17.5891V16.625C25.375 16.3929 25.2829 16.1704 25.1188 16.0063C24.9547 15.8422 24.7321 15.75 24.5 15.75ZM26.1986 11.0808L22.9573 2.33078C22.8966 2.16079 22.7848 2.01373 22.6373 1.90976C22.4898 1.80578 22.3137 1.74998 22.1332 1.75H19.8669C19.6864 1.74998 19.5103 1.80578 19.3628 1.90976C19.2152 2.01373 19.1035 2.16079 19.0428 2.33078L15.8015 11.0808C15.7543 11.2128 15.7396 11.3542 15.7585 11.4931C15.7774 11.632 15.8294 11.7643 15.9102 11.8789C15.9909 11.9935 16.0979 12.087 16.2224 12.1516C16.3468 12.2162 16.4849 12.2499 16.625 12.25H17.9829C18.168 12.2501 18.3483 12.1914 18.498 12.0826C18.6476 11.9737 18.7589 11.8202 18.8158 11.6441L19.0575 10.9375H22.9404L23.1815 11.6441C23.2386 11.8205 23.3502 11.9743 23.5003 12.0832C23.6504 12.1921 23.8312 12.2505 24.0166 12.25H25.375C25.5152 12.2499 25.6533 12.2162 25.7777 12.1516C25.9021 12.087 26.0092 11.9935 26.0899 11.8789C26.1707 11.7643 26.2227 11.632 26.2416 11.4931C26.2605 11.3542 26.2458 11.2128 26.1986 11.0808ZM20.1037 7.875L21 5.25L21.8964 7.875H20.1037Z"/>
    </symbol>
    <symbol id="add_circle" width="currentWidth" height="currentHeight" viewBox="0 0 32 32" fill="currentColor"
            stroke="currentStroke">
        <path d="M10.6665 16H21.3332M15.9998 21.3333V10.6667M15.9998 29.3333C23.3332 29.3333 29.3332 23.3333 29.3332 16C29.3332 8.66667 23.3332 2.66667 15.9998 2.66667C8.6665 2.66667 2.6665 8.66667 2.6665 16C2.6665 23.3333 8.6665 29.3333 15.9998 29.3333Z"
              stroke-width="2" stroke-linecap="round" stroke-linejoin="round"/>
    </symbol>
    <symbol id="line" width="currentWidth" height="currentHeight" fill="currentColor" stroke="currentStroke">
        <line x1="10" y1="1" x2="10" y2="184" stroke-width="2" stroke-linecap="round"/>
        <line x1="10" y1="214" x2="9.99999" y2="397" stroke-width="2" stroke-linecap="round"/>
        <circle cx="10" cy="199" r="9" stroke-width="2"/>
    </symbol>
    <symbol id="lines" width="currentWidth" height="currentHeight" viewBox="0 0 36 36" fill="currentColor"
            stroke="currentStroke">
        <line x1="7" y1="1" x2="7" y2="17" stroke-width="2" stroke-linecap="round"/>
        <line x1="19" y1="29" x2="35" y2="29" stroke-width="2" stroke-linecap="round"/>
        <circle cx="7" cy="29" r="6.5"/>
    </symbol>
    <symbol id="left-line" width="currentWidth" height="currentHeight" fill="currentColor" stroke="currentStroke">
        <line x1="25" y1="10" x2="51" y2="10" stroke-width="2" stroke-linecap="round"/>
        <circle cx="10" cy="10" r="9" stroke-width="2"/>
    </symbol>
    <symbol id="right-line" width="currentWidth" height="currentHeight" fill="currentColor" stroke="currentStroke">
        <line x1="1" y1="10" x2="27" y2="10" stroke-width="2" stroke-linecap="round"/>
        <circle cx="42" cy="10" r="9" stroke-width="2"/>
    </symbol>
    <symbol id="bottom-line" width="currentWidth" height="currentHeight" fill="currentColor" stroke="currentStroke">
        <line x1="10" y1="25" x2="10" y2="51" stroke-width="2" stroke-linecap="round"/>
        <circle cx="10" cy="10" r="9" stroke-width="2"/>
    </symbol>
    <symbol id="edit_icon" width="currentWidth" height="currentHeight" viewBox="0 0 32 32" fill="currentColor"
            stroke="currentStroke">
        <path d="M17.6801 4.8L6.73346 16.3867C6.32013 16.8267 5.92013 17.6933 5.84013 18.2933L5.34679 22.6133C5.17346 24.1733 6.29346 25.24 7.84013 24.9733L12.1335 24.24C12.7335 24.1333 13.5735 23.6933 13.9868 23.24L24.9335 11.6533C26.8268 9.65334 27.6801 7.37334 24.7335 4.58667C21.8001 1.82667 19.5735 2.8 17.6801 4.8Z"
              stroke-width="1.5" stroke-miterlimit="10" stroke-linecap="round" stroke-linejoin="round"/>
        <path d="M15.8533 6.73334C16.1329 8.52114 16.9981 10.1655 18.3134 11.4083C19.6286 12.6511 21.3192 13.422 23.12 13.6M4 29.3333H28"
              stroke-width="1.5" stroke-miterlimit="10" stroke-linecap="round" stroke-linejoin="round"/>
    </symbol>
    <symbol id="user_icon_default" width="currentWidth" height="currentHeight" viewBox="0 0 40 40" fill="currentColor"
            stroke="currentStroke">
        <path d="M20 0.625C9.29688 0.625 0.625 9.29688 0.625 20C0.625 30.7031 9.29688 39.375 20 39.375C30.7031 39.375 39.375 30.7031 39.375 20C39.375 9.29688 30.7031 0.625 20 0.625ZM20 8.125C23.7969 8.125 26.875 11.2031 26.875 15C26.875 18.7969 23.7969 21.875 20 21.875C16.2031 21.875 13.125 18.7969 13.125 15C13.125 11.2031 16.2031 8.125 20 8.125ZM20 35C15.4141 35 11.3047 32.9219 8.55469 29.6719C10.0234 26.9062 12.8984 25 16.25 25C16.4375 25 16.625 25.0312 16.8047 25.0859C17.8203 25.4141 18.8828 25.625 20 25.625C21.1172 25.625 22.1875 25.4141 23.1953 25.0859C23.375 25.0312 23.5625 25 23.75 25C27.1016 25 29.9766 26.9062 31.4453 29.6719C28.6953 32.9219 24.5859 35 20 35Z"/>
    </symbol>
    <symbol id="edit_comment" width="currentWidth" height="currentHeight" viewBox="0 0 24 24" fill="currentColor"
            stroke="currentStroke">
        <path d="M12 22C17.5 22 22 17.5 22 12C22 6.5 17.5 2 12 2C6.5 2 2 6.5 2 12C2 17.5 6.5 22 12 22Z"
              stroke-width="1.5" stroke-linecap="round" stroke-linejoin="round"/>
        <path d="M15.9961 12H16.0061M11.9951 12H12.0051M7.99512 12H8.00312" stroke-width="2" stroke-linecap="round"
              stroke-linejoin="round"/>
    </symbol>
    <symbol id="cloud" width="currentWidth" height="currentHeight" viewBox="0 0 68 68" fill="currentColor"
            stroke="currentStroke">
        <path d="M20.5976 36.8617C19.0875 36.0956 17.4176 35.6976 15.7243 35.7C2.4643 36.635 2.4643 55.93 15.7243 56.865H47.146C50.971 56.8933 54.6543 55.4767 57.4593 52.8983C66.781 44.7667 61.7943 28.4183 49.526 26.86C45.106 0.31167 6.77096 10.3983 15.866 35.7"
              stroke-width="2" stroke-miterlimit="10" stroke-linecap="round" stroke-linejoin="round"/>
        <path d="M44.9082 28.1067C46.3815 27.37 47.9965 26.9733 49.6399 26.945" stroke-width="2" stroke-miterlimit="10"
              stroke-linecap="round" stroke-linejoin="round"/>
    </symbol>
    <symbol id="settings" width="currentWidth" height="currentHeight" viewBox="0 0 42 42" fill="currentColor"
            stroke="currentStroke">
        <path d="M21 26.25C22.3924 26.25 23.7277 25.6969 24.7123 24.7123C25.6969 23.7277 26.25 22.3924 26.25 21C26.25 19.6076 25.6969 18.2723 24.7123 17.2877C23.7277 16.3031 22.3924 15.75 21 15.75C19.6076 15.75 18.2723 16.3031 17.2877 17.2877C16.3031 18.2723 15.75 19.6076 15.75 21C15.75 22.3924 16.3031 23.7277 17.2877 24.7123C18.2723 25.6969 19.6076 26.25 21 26.25Z"
              stroke-width="1.5" stroke-miterlimit="10" stroke-linecap="round" stroke-linejoin="round"/>
        <path d="M3.5 22.54V19.46C3.5 17.64 4.9875 16.135 6.825 16.135C9.9925 16.135 11.2875 13.895 9.695 11.1475C8.785 9.57251 9.3275 7.52501 10.92 6.61501L13.9475 4.88251C15.33 4.06001 17.115 4.55001 17.9375 5.93251L18.13 6.26501C19.705 9.01251 22.295 9.01251 23.8875 6.26501L24.08 5.93251C24.9025 4.55001 26.6875 4.06001 28.07 4.88251L31.0975 6.61501C32.69 7.52501 33.2325 9.57251 32.3225 11.1475C30.73 13.895 32.025 16.135 35.1925 16.135C37.0125 16.135 38.5175 17.6225 38.5175 19.46V22.54C38.5175 24.36 37.03 25.865 35.1925 25.865C32.025 25.865 30.73 28.105 32.3225 30.8525C33.2325 32.445 32.69 34.475 31.0975 35.385L28.07 37.1175C26.6875 37.94 24.9025 37.45 24.08 36.0675L23.8875 35.735C22.3125 32.9875 19.7225 32.9875 18.13 35.735L17.9375 36.0675C17.115 37.45 15.33 37.94 13.9475 37.1175L10.92 35.385C10.1572 34.9458 9.59977 34.2219 9.3701 33.3721C9.14044 32.5224 9.25729 31.6162 9.695 30.8525C11.2875 28.105 9.9925 25.865 6.825 25.865C4.9875 25.865 3.5 24.36 3.5 22.54Z"
              stroke-width="1.5" stroke-miterlimit="10" stroke-linecap="round" stroke-linejoin="round"/>
    </symbol>
    <symbol id="camera" width="currentWidth" height="currentHeight" viewBox="0 0 48 48" fill="currentColor"
            stroke="currentStroke">
        <path d="M21.0003 16H27.0003M13.5203 44H34.4803C40.0003 44 42.2003 40.62 42.4603 36.5L43.5003 19.98C43.5652 18.9557 43.4192 17.9289 43.0715 16.9632C42.7238 15.9975 42.1817 15.1134 41.4788 14.3655C40.7759 13.6176 39.927 13.0218 38.9847 12.6149C38.0424 12.2081 37.0267 11.9988 36.0003 12C34.7803 12 33.6603 11.3 33.1003 10.22L31.6603 7.32C30.7403 5.5 28.3403 4 26.3003 4H21.7203C19.6603 4 17.2603 5.5 16.3403 7.32L14.9003 10.22C14.3403 11.3 13.2203 12 12.0003 12C7.66034 12 4.22034 15.66 4.50034 19.98L5.54034 36.5C5.78034 40.62 8.00034 44 13.5203 44Z"
              stroke-width="2" stroke-linecap="round" stroke-linejoin="round"/>
        <path d="M24 36C27.58 36 30.5 33.08 30.5 29.5C30.5 25.92 27.58 23 24 23C20.42 23 17.5 25.92 17.5 29.5C17.5 33.08 20.42 36 24 36Z"
              stroke-width="2" stroke-linecap="round" stroke-linejoin="round"/>
    </symbol>
    <symbol id="full_arrow_left" width="currentWidth" height="currentHeight" viewBox="0 0 24 24" fill="currentColor"
            stroke="currentStroke">
        <path d="M15.5 12H9.5M12 22C17.523 22 22 17.523 22 12C22 6.477 17.523 2 12 2C6.477 2 2 6.477 2 12C2 17.523 6.477 22 12 22Z"
              stroke-width="1.5" stroke-linecap="round" stroke-linejoin="round"/>
        <path d="M11.5 9L8.5 12L11.5 15" stroke-width="1.5" stroke-linecap="round" stroke-linejoin="round"/>
    </symbol>
    <symbol id="selected" width="currentWidth" height="currentHeight" viewBox="0 0 24 24" fill="currentColor"
            stroke="currentStroke">
        <path d="M12 22C17.5 22 22 17.5 22 12C22 6.5 17.5 2 12 2C6.5 2 2 6.5 2 12C2 17.5 6.5 22 12 22Z"
              stroke-width="1.5" stroke-linecap="round" stroke-linejoin="round"/>
        <path d="M7.75 12L10.58 14.83L16.25 9.16998" stroke-width="1.5" stroke-linecap="round" stroke-linejoin="round"/>
    </symbol>
    <symbol id="arrow_circle_right" width="currentWidth" height="currentHeight" viewBox="0 0 36 36" fill="currentColor"
            stroke="currentStroke">
        <path d="M18 33C26.2845 33 33 26.2845 33 18C33 9.7155 26.2845 3 18 3C9.7155 3 3 9.7155 3 18C3 26.2845 9.7155 33 18 33Z"
              stroke-width="2" stroke-miterlimit="10" stroke-linecap="round" stroke-linejoin="round"/>
        <path d="M16.1094 23.295L21.3894 18L16.1094 12.705" stroke-width="2" stroke-linecap="round"
              stroke-linejoin="round"/>
    </symbol>
    <symbol id="user_edit" width="currentWidth" height="currentHeight" viewBox="0 0 24 24" fill="currentColor"
            stroke="currentStroke">
        <path d="M12 12C13.3261 12 14.5979 11.4732 15.5355 10.5355C16.4732 9.59785 17 8.32608 17 7C17 5.67392 16.4732 4.40215 15.5355 3.46447C14.5979 2.52678 13.3261 2 12 2C10.6739 2 9.40215 2.52678 8.46447 3.46447C7.52678 4.40215 7 5.67392 7 7C7 8.32608 7.52678 9.59785 8.46447 10.5355C9.40215 11.4732 10.6739 12 12 12Z"
              stroke-width="1.5" stroke-linecap="round" stroke-linejoin="round"/>
        <path d="M19.2091 15.74L15.6691 19.28C15.5291 19.42 15.3991 19.68 15.3691 19.87L15.1791 21.22C15.1091 21.71 15.4491 22.05 15.9391 21.98L17.2891 21.79C17.4791 21.76 17.7491 21.63 17.8791 21.49L21.4191 17.95C22.0291 17.34 22.3191 16.63 21.4191 15.73C20.5291 14.84 19.8191 15.13 19.2091 15.74Z"
              stroke-width="1.5" stroke-miterlimit="10" stroke-linecap="round" stroke-linejoin="round"/>
        <path d="M18.6992 16.25C18.9992 17.33 19.8392 18.17 20.9192 18.47" stroke-width="1.5" stroke-miterlimit="10"
              stroke-linecap="round" stroke-linejoin="round"/>
        <path d="M3.41016 22C3.41016 18.13 7.26016 15 12.0002 15C13.0402 15 14.0402 15.15 14.9702 15.43"
              stroke-width="1.5" stroke-linecap="round" stroke-linejoin="round"/>
    </symbol>
    <symbol id="privacy" width="currentWidth" height="currentHeight" viewBox="0 0 24 24" fill="currentColor"
            stroke="currentStroke">
        <path d="M10.4902 2.23L5.50016 4.1C4.35016 4.53 3.41016 5.89 3.41016 7.12V14.55C3.41016 15.73 4.19016 17.28 5.14016 17.99L9.44016 21.2C10.8502 22.26 13.1702 22.26 14.5802 21.2L18.8802 17.99C19.8302 17.28 20.6102 15.73 20.6102 14.55V7.12C20.6102 5.89 19.6702 4.53 18.5202 4.1L13.5302 2.23C12.6802 1.92 11.3202 1.92 10.4902 2.23Z"
              stroke-width="1.5" stroke-linecap="round" stroke-linejoin="round"/>
        <path d="M11.9991 10.92H11.8691C10.9291 10.89 10.1791 10.11 10.1791 9.15999C10.1791 8.18999 10.9691 7.39999 11.9391 7.39999C12.9091 7.39999 13.6991 8.18999 13.6991 9.15999C13.6891 10.12 12.9391 10.89 11.9991 10.92ZM10.0091 13.72C9.04906 14.36 9.04906 15.41 10.0091 16.05C11.0991 16.78 12.8891 16.78 13.9791 16.05C14.9391 15.41 14.9391 14.36 13.9791 13.72C12.8991 12.99 11.1091 12.99 10.0091 13.72Z"
              stroke-width="1.5" stroke-linecap="round" stroke-linejoin="round"/>
    </symbol>
    <symbol id="lock" width="currentWidth" height="currentHeight" viewBox="0 0 68 68" fill="currentColor"
            stroke="currentStroke">
        <path d="M25.5 31.1666V28.3333C25.5 23.63 26.9167 19.8333 34 19.8333C41.0833 19.8333 42.5 23.63 42.5 28.3333V31.1666M34 41.3666C34.2232 41.3666 34.4443 41.3227 34.6506 41.2372C34.8568 41.1518 35.0442 41.0266 35.2021 40.8687C35.3599 40.7109 35.4852 40.5235 35.5706 40.3172C35.656 40.111 35.7 39.8899 35.7 39.6666C35.7 39.4434 35.656 39.2223 35.5706 39.0161C35.4852 38.8098 35.3599 38.6224 35.2021 38.4646C35.0442 38.3067 34.8568 38.1815 34.6506 38.0961C34.4443 38.0106 34.2232 37.9666 34 37.9666C33.5491 37.9666 33.1167 38.1458 32.7979 38.4646C32.4791 38.7834 32.3 39.2158 32.3 39.6666C32.3 40.1175 32.4791 40.5499 32.7979 40.8687C33.1167 41.1875 33.5491 41.3666 34 41.3666Z" stroke-width="1.5" stroke-linecap="round" stroke-linejoin="round"/>
        <path d="M41.084 48.1667H26.9173C21.2507 48.1667 19.834 46.75 19.834 41.0834V38.25C19.834 32.5834 21.2507 31.1667 26.9173 31.1667H41.084C46.7507 31.1667 48.1673 32.5834 48.1673 38.25V41.0834C48.1673 46.75 46.7507 48.1667 41.084 48.1667Z" stroke-width="1.5" stroke-linecap="round" stroke-linejoin="round"/>
        <path d="M33.9994 62.3334C49.6479 62.3334 62.3327 49.6485 62.3327 34C62.3327 18.3515 49.6479 5.66669 33.9994 5.66669C18.3509 5.66669 5.66602 18.3515 5.66602 34C5.66602 49.6485 18.3509 62.3334 33.9994 62.3334Z" stroke-width="1.5" stroke-linecap="round" stroke-linejoin="round"/>
    </symbol>
    <symbol id="note" width="currentWidth" height="currentHeight" viewBox="0 0 24 24" fill="currentColor"
            stroke="currentStroke">
        <path d="M8 2V5M16 2V5M7 13H15M7 17H12M16 3.5C19.33 3.68 21 4.95 21 9.65V15.83C21 19.95 20 22.01 15 22.01H9C4 22.01 3 19.95 3 15.83V9.65C3 4.95 4.67 3.69 8 3.5H16Z"
              stroke-width="1.5" stroke-miterlimit="10" stroke-linecap="round" stroke-linejoin="round"/>
    </symbol>
    <symbol id="close" width="currentWidth" height="currentHeight" viewBox="0 0 36 36" fill="currentColor"
            stroke="currentStroke">
        <path d="M13.7589 22.245L22.2489 13.755M22.2489 22.245L13.7589 13.755M18.0039 33C26.2539 33 33.0039 26.25 33.0039 18C33.0039 9.75 26.2539 3 18.0039 3C9.75391 3 3.00391 9.75 3.00391 18C3.00391 26.25 9.75391 33 18.0039 33Z"
              stroke-width="2" stroke-linecap="round" stroke-linejoin="round"/>
    </symbol>
    <symbol id="trash" width="currentWidth" height="currentHeight" viewBox="0 0 28 28" fill="currentColor"
            stroke="currentStroke">
        <path d="M24.5 6.97608C20.615 6.59108 16.7067 6.39275 12.81 6.39275C10.5 6.39275 8.19 6.50942 5.88 6.74275L3.5 6.97608M9.91667 5.79775L10.1733 4.26942C10.36 3.16108 10.5 2.33275 12.4717 2.33275H15.5283C17.5 2.33275 17.6517 3.20775 17.8267 4.28108L18.0833 5.79775M21.9917 10.6627L21.2333 22.4111C21.105 24.2427 21 25.6661 17.745 25.6661H10.255C7 25.6661 6.895 24.2427 6.76667 22.4111L6.00833 10.6627M12.0517 19.2494H15.9367M11.0833 14.5827H16.9167"
              stroke-width="1.5" stroke-linecap="round" stroke-linejoin="round"/>
    </symbol>
    <symbol id="warning" width="currentWidth" height="currentHeight" viewBox="0 0 32 32" fill="currentColor"
            stroke="currentStroke">
        <path d="M16 32c8.836 0 16-7.164 16-16S24.836 0 16 0 0 7.164 0 16s7.164 16 16 16zm2-14a2 2 0 0 1-4 0V8a2 2 0 0 1 4 0v10zm-2 3.968a2 2 0 1 1-.001 4.001A2 2 0 0 1 16 21.968z"/>
    </symbol>
</svg>